# MagicaVoxel @ Ephtracy

# group
o 

# material
mtllib spinesEnemy.mtl
usemtl palette

# normals
vn -1 0 0
vn 1 0 0
vn 0 0 1
vn 0 0 -1
vn 0 -1 0
vn 0 1 0

# texcoords
vt 0.00976562 0.5
vt 0.775391 0.5
vt 0.958984 0.5
vt 0.974609 0.5
vt 0.994141 0.5

# verts
v -0.6 0.7 0.1
v -0.6 0.7 0
v -0.6 0.7 -0.1
v -0.6 0.7 -0.2
v -0.6 0.7 -0.3
v -0.6 0.7 -0.4
v -0.6 0.8 0.1
v -0.6 0.8 0
v -0.6 0.8 -0.1
v -0.6 0.8 -0.2
v -0.6 0.8 -0.3
v -0.6 0.8 -0.4
v -0.4 1.1 0.3
v -0.4 1.1 -0.5
v -0.4 2 0.3
v -0.4 2 -0.5
v -0.3 0 0.3
v -0.3 0 -0.4
v -0.3 0.2 0.3
v -0.3 0.2 0.1
v -0.3 0.2 -0.4
v -0.3 0.7 0.1
v -0.3 0.7 0
v -0.3 0.7 -0.1
v -0.3 0.7 -0.2
v -0.3 0.7 -0.3
v -0.3 0.7 -0.4
v -0.3 0.8 0.1
v -0.3 0.8 0
v -0.3 0.8 -0.1
v -0.3 0.8 -0.2
v -0.3 0.8 -0.3
v -0.3 0.8 -0.4
v -0.3 1.1 0.1
v -0.3 1.1 -0.4
v -0.2 0.7 0.4
v -0.2 0.7 0.1
v -0.2 0.7 -0.4
v -0.2 0.7 -0.7
v -0.2 0.8 0.4
v -0.2 0.8 0.1
v -0.2 0.8 -0.4
v -0.2 0.8 -0.7
v 5.96046e-08 0.7 0.4
v 5.96046e-08 0.7 0.1
v 5.96046e-08 0.7 -0.4
v 5.96046e-08 0.7 -0.7
v 5.96046e-08 0.8 0.4
v 5.96046e-08 0.8 0.1
v 5.96046e-08 0.8 -0.4
v 5.96046e-08 0.8 -0.7
v 0.1 0 0.3
v 0.1 0 -0.4
v 0.1 0.2 0.3
v 0.1 0.2 0.1
v 0.1 0.2 -0.4
v 0.2 0.7 0.4
v 0.2 0.7 0.1
v 0.2 0.7 -0.4
v 0.2 0.7 -0.7
v 0.2 0.8 0.4
v 0.2 0.8 0.1
v 0.2 0.8 -0.4
v 0.2 0.8 -0.7
v -0.0999999 0 0.3
v -0.0999999 0 -0.4
v -0.0999999 0.2 0.3
v -0.0999999 0.2 0.1
v -0.0999999 0.2 -0.4
v -0.0999999 0.7 0.4
v -0.0999999 0.7 0.1
v -0.0999999 0.7 -0.4
v -0.0999999 0.7 -0.7
v -0.0999999 0.8 0.4
v -0.0999999 0.8 0.1
v -0.0999999 0.8 -0.4
v -0.0999999 0.8 -0.7
v 0.1 0.7 0.4
v 0.1 0.7 0.1
v 0.1 0.7 -0.4
v 0.1 0.7 -0.7
v 0.1 0.8 0.4
v 0.1 0.8 0.1
v 0.1 0.8 -0.4
v 0.1 0.8 -0.7
v 0.3 0 0.3
v 0.3 0 -0.4
v 0.3 0.2 0.3
v 0.3 0.2 0.1
v 0.3 0.2 -0.4
v 0.3 0.7 0.4
v 0.3 0.7 0.1
v 0.3 0.7 0
v 0.3 0.7 -0.1
v 0.3 0.7 -0.2
v 0.3 0.7 -0.3
v 0.3 0.7 -0.4
v 0.3 0.7 -0.7
v 0.3 0.8 0.4
v 0.3 0.8 0.1
v 0.3 0.8 0
v 0.3 0.8 -0.1
v 0.3 0.8 -0.2
v 0.3 0.8 -0.3
v 0.3 0.8 -0.4
v 0.3 0.8 -0.7
v 0.3 1.1 0.1
v 0.3 1.1 -0.4
v 0.5 1.1 0.3
v 0.5 1.1 -0.5
v 0.5 2 0.3
v 0.5 2 -0.5
v 0.6 0.7 0.1
v 0.6 0.7 0
v 0.6 0.7 -0.1
v 0.6 0.7 -0.2
v 0.6 0.7 -0.3
v 0.6 0.7 -0.4
v 0.6 0.8 0.1
v 0.6 0.8 0
v 0.6 0.8 -0.1
v 0.6 0.8 -0.2
v 0.6 0.8 -0.3
v 0.6 0.8 -0.4
v -0.2 0.7 0.4
v -0.2 0.8 0.4
v -0.0999999 0.7 0.4
v -0.0999999 0.8 0.4
v 5.96046e-08 0.7 0.4
v 5.96046e-08 0.8 0.4
v 0.1 0.7 0.4
v 0.1 0.8 0.4
v 0.2 0.7 0.4
v 0.2 0.8 0.4
v 0.3 0.7 0.4
v 0.3 0.8 0.4
v -0.4 1.1 0.3
v -0.4 2 0.3
v -0.3 0 0.3
v -0.3 0.2 0.3
v -0.3 1.4 0.3
v -0.3 1.7 0.3
v -0.2 1.5 0.3
v -0.2 1.6 0.3
v -0.0999999 0 0.3
v -0.0999999 0.2 0.3
v -0.0999999 1.5 0.3
v -0.0999999 1.6 0.3
v 5.96046e-08 1.4 0.3
v 5.96046e-08 1.7 0.3
v 0.1 0 0.3
v 0.1 0.2 0.3
v 0.1 1.4 0.3
v 0.1 1.7 0.3
v 0.2 1.5 0.3
v 0.2 1.6 0.3
v 0.3 0 0.3
v 0.3 0.2 0.3
v 0.3 1.5 0.3
v 0.3 1.6 0.3
v 0.4 1.4 0.3
v 0.4 1.7 0.3
v 0.5 1.1 0.3
v 0.5 2 0.3
v -0.6 0.7 0.1
v -0.6 0.8 0.1
v -0.3 0.2 0.1
v -0.3 0.7 0.1
v -0.3 0.8 0.1
v -0.3 1.1 0.1
v -0.2 0.7 0.1
v -0.2 0.8 0.1
v -0.0999999 0.2 0.1
v -0.0999999 0.7 0.1
v -0.0999999 0.8 0.1
v 5.96046e-08 0.7 0.1
v 5.96046e-08 0.8 0.1
v 0.1 0.2 0.1
v 0.1 0.7 0.1
v 0.1 0.8 0.1
v 0.2 0.7 0.1
v 0.2 0.8 0.1
v 0.3 0.2 0.1
v 0.3 0.7 0.1
v 0.3 0.8 0.1
v 0.3 1.1 0.1
v 0.6 0.7 0.1
v 0.6 0.8 0.1
v -0.6 0.7 -0.1
v -0.6 0.8 -0.1
v -0.3 0.7 -0.1
v -0.3 0.8 -0.1
v 0.3 0.7 -0.1
v 0.3 0.8 -0.1
v 0.6 0.7 -0.1
v 0.6 0.8 -0.1
v -0.6 0.7 -0.3
v -0.6 0.8 -0.3
v -0.3 0.7 -0.3
v -0.3 0.8 -0.3
v 0.3 0.7 -0.3
v 0.3 0.8 -0.3
v 0.6 0.7 -0.3
v 0.6 0.8 -0.3
v -0.6 0.7 0
v -0.6 0.8 0
v -0.3 0.7 0
v -0.3 0.8 0
v 0.3 0.7 0
v 0.3 0.8 0
v 0.6 0.7 0
v 0.6 0.8 0
v -0.6 0.7 -0.2
v -0.6 0.8 -0.2
v -0.3 0.7 -0.2
v -0.3 0.8 -0.2
v 0.3 0.7 -0.2
v 0.3 0.8 -0.2
v 0.6 0.7 -0.2
v 0.6 0.8 -0.2
v -0.6 0.7 -0.4
v -0.6 0.8 -0.4
v -0.3 0 -0.4
v -0.3 0.2 -0.4
v -0.3 0.7 -0.4
v -0.3 0.8 -0.4
v -0.3 1.1 -0.4
v -0.2 0.7 -0.4
v -0.2 0.8 -0.4
v -0.0999999 0 -0.4
v -0.0999999 0.2 -0.4
v -0.0999999 0.7 -0.4
v -0.0999999 0.8 -0.4
v 5.96046e-08 0.7 -0.4
v 5.96046e-08 0.8 -0.4
v 0.1 0 -0.4
v 0.1 0.2 -0.4
v 0.1 0.7 -0.4
v 0.1 0.8 -0.4
v 0.2 0.7 -0.4
v 0.2 0.8 -0.4
v 0.3 0 -0.4
v 0.3 0.2 -0.4
v 0.3 0.7 -0.4
v 0.3 0.8 -0.4
v 0.3 1.1 -0.4
v 0.6 0.7 -0.4
v 0.6 0.8 -0.4
v -0.4 1.1 -0.5
v -0.4 2 -0.5
v 0.5 1.1 -0.5
v 0.5 2 -0.5
v -0.2 0.7 -0.7
v -0.2 0.8 -0.7
v -0.0999999 0.7 -0.7
v -0.0999999 0.8 -0.7
v 5.96046e-08 0.7 -0.7
v 5.96046e-08 0.8 -0.7
v 0.1 0.7 -0.7
v 0.1 0.8 -0.7
v 0.2 0.7 -0.7
v 0.2 0.8 -0.7
v 0.3 0.7 -0.7
v 0.3 0.8 -0.7
v -0.3 0 0.3
v -0.0999999 0 0.3
v 0.1 0 0.3
v 0.3 0 0.3
v -0.3 0 -0.4
v -0.0999999 0 -0.4
v 0.1 0 -0.4
v 0.3 0 -0.4
v -0.0999999 0.2 0.1
v 0.1 0.2 0.1
v -0.0999999 0.2 -0.4
v 0.1 0.2 -0.4
v -0.2 0.7 0.4
v -0.0999999 0.7 0.4
v 5.96046e-08 0.7 0.4
v 0.1 0.7 0.4
v 0.2 0.7 0.4
v 0.3 0.7 0.4
v -0.6 0.7 0.1
v -0.3 0.7 0.1
v -0.2 0.7 0.1
v -0.0999999 0.7 0.1
v 5.96046e-08 0.7 0.1
v 0.1 0.7 0.1
v 0.2 0.7 0.1
v 0.3 0.7 0.1
v 0.6 0.7 0.1
v -0.6 0.7 0
v -0.3 0.7 0
v 0.3 0.7 0
v 0.6 0.7 0
v -0.6 0.7 -0.1
v -0.3 0.7 -0.1
v 0.3 0.7 -0.1
v 0.6 0.7 -0.1
v -0.6 0.7 -0.2
v -0.3 0.7 -0.2
v 0.3 0.7 -0.2
v 0.6 0.7 -0.2
v -0.6 0.7 -0.3
v -0.3 0.7 -0.3
v 0.3 0.7 -0.3
v 0.6 0.7 -0.3
v -0.6 0.7 -0.4
v -0.3 0.7 -0.4
v -0.2 0.7 -0.4
v -0.0999999 0.7 -0.4
v 5.96046e-08 0.7 -0.4
v 0.1 0.7 -0.4
v 0.2 0.7 -0.4
v 0.3 0.7 -0.4
v 0.6 0.7 -0.4
v -0.2 0.7 -0.7
v -0.0999999 0.7 -0.7
v 5.96046e-08 0.7 -0.7
v 0.1 0.7 -0.7
v 0.2 0.7 -0.7
v 0.3 0.7 -0.7
v -0.4 1.1 0.3
v 0.5 1.1 0.3
v -0.3 1.1 0.1
v 0.3 1.1 0.1
v -0.3 1.1 -0.4
v 0.3 1.1 -0.4
v -0.4 1.1 -0.5
v 0.5 1.1 -0.5
v -0.3 0.2 0.3
v -0.0999999 0.2 0.3
v 0.1 0.2 0.3
v 0.3 0.2 0.3
v -0.3 0.2 0.1
v -0.0999999 0.2 0.1
v 0.1 0.2 0.1
v 0.3 0.2 0.1
v -0.2 0.8 0.4
v -0.0999999 0.8 0.4
v 5.96046e-08 0.8 0.4
v 0.1 0.8 0.4
v 0.2 0.8 0.4
v 0.3 0.8 0.4
v -0.6 0.8 0.1
v -0.3 0.8 0.1
v -0.2 0.8 0.1
v -0.0999999 0.8 0.1
v 5.96046e-08 0.8 0.1
v 0.1 0.8 0.1
v 0.2 0.8 0.1
v 0.3 0.8 0.1
v 0.6 0.8 0.1
v -0.6 0.8 0
v -0.3 0.8 0
v 0.3 0.8 0
v 0.6 0.8 0
v -0.6 0.8 -0.1
v -0.3 0.8 -0.1
v 0.3 0.8 -0.1
v 0.6 0.8 -0.1
v -0.6 0.8 -0.2
v -0.3 0.8 -0.2
v 0.3 0.8 -0.2
v 0.6 0.8 -0.2
v -0.6 0.8 -0.3
v -0.3 0.8 -0.3
v 0.3 0.8 -0.3
v 0.6 0.8 -0.3
v -0.6 0.8 -0.4
v -0.3 0.8 -0.4
v -0.2 0.8 -0.4
v -0.0999999 0.8 -0.4
v 5.96046e-08 0.8 -0.4
v 0.1 0.8 -0.4
v 0.2 0.8 -0.4
v 0.3 0.8 -0.4
v 0.6 0.8 -0.4
v -0.2 0.8 -0.7
v -0.0999999 0.8 -0.7
v 5.96046e-08 0.8 -0.7
v 0.1 0.8 -0.7
v 0.2 0.8 -0.7
v 0.3 0.8 -0.7
v -0.4 2 0.3
v 0.5 2 0.3
v -0.4 2 -0.5
v 0.5 2 -0.5

# faces
f 7/4/1 2/4/1 1/4/1
f 8/4/1 2/4/1 7/4/1
f 9/4/1 4/4/1 3/4/1
f 10/4/1 4/4/1 9/4/1
f 11/4/1 6/4/1 5/4/1
f 12/4/1 6/4/1 11/4/1
f 15/2/1 14/2/1 13/2/1
f 16/2/1 14/2/1 15/2/1
f 19/5/1 18/5/1 17/5/1
f 20/5/1 18/5/1 19/5/1
f 21/5/1 18/5/1 20/5/1
f 22/2/1 21/2/1 20/2/1
f 23/2/1 21/2/1 22/2/1
f 24/2/1 21/2/1 23/2/1
f 25/2/1 21/2/1 24/2/1
f 26/2/1 21/2/1 25/2/1
f 27/2/1 21/2/1 26/2/1
f 29/2/1 24/2/1 23/2/1
f 30/2/1 24/2/1 29/2/1
f 31/2/1 26/2/1 25/2/1
f 32/2/1 26/2/1 31/2/1
f 34/2/1 30/2/1 29/2/1
f 34/2/1 33/2/1 32/2/1
f 34/2/1 32/2/1 31/2/1
f 34/2/1 31/2/1 30/2/1
f 34/2/1 29/2/1 28/2/1
f 35/2/1 33/2/1 34/2/1
f 40/4/1 37/4/1 36/4/1
f 41/4/1 37/4/1 40/4/1
f 42/4/1 39/4/1 38/4/1
f 43/4/1 39/4/1 42/4/1
f 48/4/1 45/4/1 44/4/1
f 49/4/1 45/4/1 48/4/1
f 50/4/1 47/4/1 46/4/1
f 51/4/1 47/4/1 50/4/1
f 54/5/1 53/5/1 52/5/1
f 55/5/1 53/5/1 54/5/1
f 56/5/1 53/5/1 55/5/1
f 61/4/1 58/4/1 57/4/1
f 62/4/1 58/4/1 61/4/1
f 63/4/1 60/4/1 59/4/1
f 64/4/1 60/4/1 63/4/1
f 65/5/2 66/5/2 67/5/2
f 67/5/2 66/5/2 68/5/2
f 68/5/2 66/5/2 69/5/2
f 70/4/2 71/4/2 74/4/2
f 74/4/2 71/4/2 75/4/2
f 72/4/2 73/4/2 76/4/2
f 76/4/2 73/4/2 77/4/2
f 78/4/2 79/4/2 82/4/2
f 82/4/2 79/4/2 83/4/2
f 80/4/2 81/4/2 84/4/2
f 84/4/2 81/4/2 85/4/2
f 86/5/2 87/5/2 88/5/2
f 88/5/2 87/5/2 89/5/2
f 89/5/2 87/5/2 90/5/2
f 89/2/2 90/2/2 92/2/2
f 92/2/2 90/2/2 93/2/2
f 93/2/2 90/2/2 94/2/2
f 94/2/2 90/2/2 95/2/2
f 95/2/2 90/2/2 96/2/2
f 96/2/2 90/2/2 97/2/2
f 91/4/2 92/4/2 99/4/2
f 99/4/2 92/4/2 100/4/2
f 93/2/2 94/2/2 101/2/2
f 101/2/2 94/2/2 102/2/2
f 95/2/2 96/2/2 103/2/2
f 103/2/2 96/2/2 104/2/2
f 97/4/2 98/4/2 105/4/2
f 105/4/2 98/4/2 106/4/2
f 103/2/2 104/2/2 107/2/2
f 101/2/2 102/2/2 107/2/2
f 104/2/2 105/2/2 107/2/2
f 102/2/2 103/2/2 107/2/2
f 100/2/2 101/2/2 107/2/2
f 107/2/2 105/2/2 108/2/2
f 109/2/2 110/2/2 111/2/2
f 111/2/2 110/2/2 112/2/2
f 113/4/2 114/4/2 119/4/2
f 119/4/2 114/4/2 120/4/2
f 115/4/2 116/4/2 121/4/2
f 121/4/2 116/4/2 122/4/2
f 117/4/2 118/4/2 123/4/2
f 123/4/2 118/4/2 124/4/2
f 127/4/3 126/4/3 125/4/3
f 128/4/3 126/4/3 127/4/3
f 131/4/3 130/4/3 129/4/3
f 132/4/3 130/4/3 131/4/3
f 135/4/3 134/4/3 133/4/3
f 136/4/3 134/4/3 135/4/3
f 141/2/3 138/2/3 137/2/3
f 142/2/3 138/2/3 141/2/3
f 143/3/3 142/3/3 141/3/3
f 144/3/3 142/3/3 143/3/3
f 145/5/3 140/5/3 139/5/3
f 146/5/3 140/5/3 145/5/3
f 147/3/3 143/3/3 141/3/3
f 147/5/3 144/5/3 143/5/3
f 148/3/3 142/3/3 144/3/3
f 148/5/3 144/5/3 147/5/3
f 149/3/3 147/3/3 141/3/3
f 149/2/3 141/2/3 137/2/3
f 149/3/3 148/3/3 147/3/3
f 150/3/3 142/3/3 148/3/3
f 150/3/3 148/3/3 149/3/3
f 150/2/3 138/2/3 142/2/3
f 153/2/3 149/2/3 137/2/3
f 153/2/3 150/2/3 149/2/3
f 154/2/3 138/2/3 150/2/3
f 154/2/3 150/2/3 153/2/3
f 155/3/3 154/3/3 153/3/3
f 156/3/3 154/3/3 155/3/3
f 157/5/3 152/5/3 151/5/3
f 158/5/3 152/5/3 157/5/3
f 159/3/3 155/3/3 153/3/3
f 159/5/3 156/5/3 155/5/3
f 160/3/3 154/3/3 156/3/3
f 160/5/3 156/5/3 159/5/3
f 161/3/3 159/3/3 153/3/3
f 161/2/3 153/2/3 137/2/3
f 161/3/3 160/3/3 159/3/3
f 162/3/3 154/3/3 160/3/3
f 162/3/3 160/3/3 161/3/3
f 162/2/3 138/2/3 154/2/3
f 163/2/3 161/2/3 137/2/3
f 163/2/3 162/2/3 161/2/3
f 164/2/3 138/2/3 162/2/3
f 164/2/3 162/2/3 163/2/3
f 168/4/3 166/4/3 165/4/3
f 169/4/3 166/4/3 168/4/3
f 171/2/3 168/2/3 167/2/3
f 171/2/3 170/2/3 169/2/3
f 171/2/3 169/2/3 168/2/3
f 172/2/3 170/2/3 171/2/3
f 173/2/3 171/2/3 167/2/3
f 174/2/3 171/2/3 173/2/3
f 175/2/3 170/2/3 172/2/3
f 176/2/3 174/2/3 173/2/3
f 176/2/3 175/2/3 174/2/3
f 177/2/3 170/2/3 175/2/3
f 177/2/3 175/2/3 176/2/3
f 178/2/3 176/2/3 173/2/3
f 179/2/3 176/2/3 178/2/3
f 180/2/3 170/2/3 177/2/3
f 181/2/3 179/2/3 178/2/3
f 181/2/3 180/2/3 179/2/3
f 182/2/3 170/2/3 180/2/3
f 182/2/3 180/2/3 181/2/3
f 183/2/3 181/2/3 178/2/3
f 184/2/3 181/2/3 183/2/3
f 185/2/3 170/2/3 182/2/3
f 186/2/3 170/2/3 185/2/3
f 187/4/3 185/4/3 184/4/3
f 188/4/3 185/4/3 187/4/3
f 191/4/3 190/4/3 189/4/3
f 192/4/3 190/4/3 191/4/3
f 195/4/3 194/4/3 193/4/3
f 196/4/3 194/4/3 195/4/3
f 199/4/3 198/4/3 197/4/3
f 200/4/3 198/4/3 199/4/3
f 203/4/3 202/4/3 201/4/3
f 204/4/3 202/4/3 203/4/3
f 205/4/4 206/4/4 207/4/4
f 207/4/4 206/4/4 208/4/4
f 209/4/4 210/4/4 211/4/4
f 211/4/4 210/4/4 212/4/4
f 213/4/4 214/4/4 215/4/4
f 215/4/4 214/4/4 216/4/4
f 217/4/4 218/4/4 219/4/4
f 219/4/4 218/4/4 220/4/4
f 221/4/4 222/4/4 225/4/4
f 225/4/4 222/4/4 226/4/4
f 224/2/4 225/2/4 228/2/4
f 226/2/4 227/2/4 228/2/4
f 225/2/4 226/2/4 228/2/4
f 228/2/4 227/2/4 229/2/4
f 223/5/4 224/5/4 230/5/4
f 224/2/4 228/2/4 231/2/4
f 230/5/4 224/5/4 231/5/4
f 231/2/4 228/2/4 232/2/4
f 229/2/4 227/2/4 233/2/4
f 231/2/4 232/2/4 234/2/4
f 232/2/4 233/2/4 234/2/4
f 233/2/4 227/2/4 235/2/4
f 234/2/4 233/2/4 235/2/4
f 231/2/4 234/2/4 237/2/4
f 237/2/4 234/2/4 238/2/4
f 235/2/4 227/2/4 239/2/4
f 237/2/4 238/2/4 240/2/4
f 238/2/4 239/2/4 240/2/4
f 239/2/4 227/2/4 241/2/4
f 240/2/4 239/2/4 241/2/4
f 236/5/4 237/5/4 242/5/4
f 237/2/4 240/2/4 243/2/4
f 242/5/4 237/5/4 243/5/4
f 243/2/4 240/2/4 244/2/4
f 241/2/4 227/2/4 245/2/4
f 245/2/4 227/2/4 246/2/4
f 244/4/4 245/4/4 247/4/4
f 247/4/4 245/4/4 248/4/4
f 249/2/4 250/2/4 251/2/4
f 251/2/4 250/2/4 252/2/4
f 253/4/4 254/4/4 255/4/4
f 255/4/4 254/4/4 256/4/4
f 257/4/4 258/4/4 259/4/4
f 259/4/4 258/4/4 260/4/4
f 261/4/4 262/4/4 263/4/4
f 263/4/4 262/4/4 264/4/4
f 269/5/5 266/5/5 265/5/5
f 270/5/5 266/5/5 269/5/5
f 271/5/5 268/5/5 267/5/5
f 272/5/5 268/5/5 271/5/5
f 275/2/5 274/2/5 273/2/5
f 276/2/5 274/2/5 275/2/5
f 285/4/5 278/4/5 277/4/5
f 286/4/5 278/4/5 285/4/5
f 287/4/5 280/4/5 279/4/5
f 288/4/5 280/4/5 287/4/5
f 289/4/5 282/4/5 281/4/5
f 290/4/5 282/4/5 289/4/5
f 292/4/5 284/4/5 283/4/5
f 293/4/5 284/4/5 292/4/5
f 294/4/5 291/4/5 290/4/5
f 295/4/5 291/4/5 294/4/5
f 300/4/5 297/4/5 296/4/5
f 301/4/5 297/4/5 300/4/5
f 302/4/5 299/4/5 298/4/5
f 303/4/5 299/4/5 302/4/5
f 308/4/5 305/4/5 304/4/5
f 309/4/5 305/4/5 308/4/5
f 315/4/5 307/4/5 306/4/5
f 316/4/5 307/4/5 315/4/5
f 317/4/5 311/4/5 310/4/5
f 318/4/5 311/4/5 317/4/5
f 319/4/5 313/4/5 312/4/5
f 320/4/5 313/4/5 319/4/5
f 321/4/5 315/4/5 314/4/5
f 322/4/5 315/4/5 321/4/5
f 325/2/5 324/2/5 323/2/5
f 326/2/5 324/2/5 325/2/5
f 327/2/5 325/2/5 323/2/5
f 328/2/5 324/2/5 326/2/5
f 329/2/5 327/2/5 323/2/5
f 329/2/5 328/2/5 327/2/5
f 330/2/5 324/2/5 328/2/5
f 330/2/5 328/2/5 329/2/5
f 331/5/6 332/5/6 335/5/6
f 335/5/6 332/5/6 336/5/6
f 333/5/6 334/5/6 337/5/6
f 337/5/6 334/5/6 338/5/6
f 339/4/6 340/4/6 347/4/6
f 347/4/6 340/4/6 348/4/6
f 341/4/6 342/4/6 349/4/6
f 349/4/6 342/4/6 350/4/6
f 343/4/6 344/4/6 351/4/6
f 351/4/6 344/4/6 352/4/6
f 345/4/6 346/4/6 354/4/6
f 354/4/6 346/4/6 355/4/6
f 352/4/6 353/4/6 356/4/6
f 356/4/6 353/4/6 357/4/6
f 358/4/6 359/4/6 362/4/6
f 362/4/6 359/4/6 363/4/6
f 360/4/6 361/4/6 364/4/6
f 364/4/6 361/4/6 365/4/6
f 366/4/6 367/4/6 370/4/6
f 370/4/6 367/4/6 371/4/6
f 368/4/6 369/4/6 377/4/6
f 377/4/6 369/4/6 378/4/6
f 372/4/6 373/4/6 379/4/6
f 379/4/6 373/4/6 380/4/6
f 374/4/6 375/4/6 381/4/6
f 381/4/6 375/4/6 382/4/6
f 376/4/6 377/4/6 383/4/6
f 383/4/6 377/4/6 384/4/6
f 385/2/6 386/2/6 387/2/6
f 387/2/6 386/2/6 388/2/6
